<svg width="20" height="16" viewBox="0 0 20 16" fill="none" xmlns="http://www.w3.org/2000/svg">
<path d="M9.293 1.55005L10 2.25805L10.707 1.55105C11.1705 1.08342 11.7219 0.711952 12.3294 0.457977C12.9369 0.204001 13.5886 0.0725186 14.247 0.0710768C14.9055 0.0696349 15.5577 0.198262 16.1663 0.449575C16.7749 0.700887 17.3279 1.06994 17.7935 1.53553C18.2591 2.00113 18.6282 2.5541 18.8795 3.16271C19.1308 3.77131 19.2594 4.42356 19.258 5.08201C19.2565 5.74046 19.125 6.39215 18.8711 6.99964C18.6171 7.60714 18.2456 8.1585 17.778 8.62205L10.708 15.693C10.6151 15.786 10.5048 15.8598 10.3834 15.9101C10.262 15.9604 10.1319 15.9863 10.0005 15.9863C9.86908 15.9863 9.73895 15.9604 9.61755 15.9101C9.49616 15.8598 9.38587 15.786 9.293 15.693L2.222 8.62205C1.74801 8.15999 1.37048 7.60841 1.11132 6.99931C0.852166 6.39021 0.716532 5.73571 0.712291 5.07378C0.70805 4.41186 0.835286 3.75567 1.08662 3.1433C1.33795 2.53093 1.70837 1.97456 2.1764 1.50646C2.64443 1.03837 3.20075 0.667864 3.81309 0.416446C4.42542 0.165027 5.08159 0.0376987 5.74352 0.0418462C6.40545 0.0459937 7.05996 0.181535 7.6691 0.440607C8.27824 0.699678 8.82987 1.07712 9.292 1.55105L9.293 1.55005Z" fill="white"/>
</svg>
