<svg width="18" height="20" viewBox="0 0 18 20" fill="none" xmlns="http://www.w3.org/2000/svg">
<path d="M10.01 15.959C9.824 15.977 8.384 17.235 5.689 19.733C5.54579 19.8658 5.36681 19.9538 5.17416 19.9861C4.98151 20.0184 4.78363 19.9935 4.60495 19.9146C4.42626 19.8357 4.27461 19.7061 4.1687 19.542C4.0628 19.3779 4.00728 19.1863 4.009 18.991C4.029 16.629 4.02 15.282 3.985 14.951C3.967 14.778 4.017 14.671 3.985 14.651C1.708 13.212 0 10.775 0 8.005C0 3.584 4.03 0 9 0C13.97 0 18 3.584 18 8.004C18 12.121 14.505 15.513 10.01 15.959Z" fill="white"/>
</svg>
